<svg xmlns="http://www.w3.org/2000/svg" viewBox="0 0 456.99 161"><defs><style>.cls-1{fill:none;}.cls-2{fill:#00ff38;}</style></defs><g id="Layer_2" data-name="Layer 2"><g id="Layer_1-2" data-name="Layer 1"><polygon class="cls-1" points="36.72 110.41 32.14 110.41 32.14 105.81 11.64 105.81 11.64 149.34 32.14 149.34 32.14 144.75 36.72 144.75 36.72 140.13 41.3 140.13 41.3 115.03 36.72 115.03 36.72 110.41"/><polygon class="cls-1" points="218.08 110.41 213.49 110.41 213.49 105.81 197.61 105.81 197.61 110.41 193 110.41 193 115.03 188.41 115.03 188.41 140.13 193 140.13 193 144.75 197.61 144.75 197.61 149.34 213.49 149.34 213.49 144.75 218.08 144.75 218.08 140.13 222.66 140.13 222.66 115.03 218.08 115.03 218.08 110.41"/><polygon class="cls-1" points="440.74 110.41 436.15 110.41 436.15 105.81 415.65 105.81 415.65 149.34 436.15 149.34 436.15 144.75 440.74 144.75 440.74 140.13 445.32 140.13 445.32 115.03 440.74 115.03 440.74 110.41"/><polygon class="cls-1" points="321.4 119.62 316.79 119.62 316.79 110.41 314.68 110.41 314.68 119.62 310.1 119.62 310.1 133.42 305.49 133.42 305.49 135.54 325.98 135.54 325.98 133.42 321.4 133.42 321.4 119.62"/><polygon points="385.62 140.13 383.51 140.13 383.51 130.95 378.9 130.95 378.9 121.73 374.32 121.73 374.32 112.55 369.74 112.55 369.74 103.34 365.12 103.34 365.12 94.12 348.9 94.12 348.9 161 360.54 161 360.54 115.03 362.64 115.03 362.64 124.21 367.26 124.21 367.26 133.42 371.84 133.42 371.84 142.6 376.42 142.6 376.42 151.82 381.04 151.82 381.04 161 397.26 161 397.26 94.12 385.62 94.12 385.62 140.13"/><path d="M452.38,107.93v-4.59h-4.59V98.75h-4.58V94.12H404V161h39.2v-4.59h4.58v-4.59h4.59v-4.59H457v-39.3Zm-7.06,32.2h-4.58v4.62h-4.59v4.59h-20.5V105.81h20.5v4.6h4.59V115h4.58Z"/><path d="M337.63,131H333V117.14h-4.58v-13.8h-4.58V94.12H307.62v9.22H303v13.8h-4.58V131h-4.59v13.8h-4.58V161H300.9V147.23h29.67V161h11.67V144.75h-4.61ZM326,135.54H305.49v-2.12h4.61v-13.8h4.58v-9.21h2.11v9.21h4.61v13.8H326Z"/><polygon points="252.69 94.12 241.05 94.12 241.05 161 284.83 161 284.83 149.34 252.69 149.34 252.69 94.12"/><polygon points="165.47 103.34 160.85 103.34 160.85 98.75 156.27 98.75 156.27 94.12 126.24 94.12 126.24 98.75 121.66 98.75 121.66 103.34 117.07 103.34 117.07 107.93 112.49 107.93 112.49 147.23 117.07 147.23 117.07 151.82 121.66 151.82 121.66 156.41 126.24 156.41 126.24 161 156.27 161 156.27 156.41 160.85 156.41 160.85 151.82 165.47 151.82 165.47 147.23 170.05 147.23 170.05 135.54 158.38 135.54 158.38 140.13 153.8 140.13 153.8 144.75 149.21 144.75 149.21 149.34 133.33 149.34 133.33 144.75 128.72 144.75 128.72 140.13 124.13 140.13 124.13 115.03 128.72 115.03 128.72 110.41 133.33 110.41 133.33 105.81 149.21 105.81 149.21 110.41 153.8 110.41 153.8 115.03 158.38 115.03 158.38 119.62 170.05 119.62 170.05 107.93 165.47 107.93 165.47 103.34"/><polygon points="59.63 161 108 161 108 149.34 71.28 149.34 71.28 131.13 103.42 131.13 103.42 119.44 71.28 119.44 71.28 105.81 108 105.81 108 94.12 59.63 94.12 59.63 161"/><path d="M48.36,103.34H43.78V98.75H39.2V94.12H0V161H39.2v-4.59h4.58v-4.59h4.58v-4.59H53v-39.3H48.36Zm-7,36.79H36.72v4.62H32.14v4.59H11.64V105.81h20.5v4.6h4.58V115h4.59Z"/><path d="M229.75,103.34h-4.61V98.75h-4.59V94.12h-30v4.63h-4.58v4.59h-4.59v4.59h-4.58v39.3h4.58v4.59h4.59v4.59h4.58V161h30v-4.59h4.59v-4.59h4.61v-4.59h4.58v-39.3h-4.58Zm-7.09,36.79h-4.58v4.62h-4.59v4.59H197.61v-4.59H193v-4.62h-4.59V115H193v-4.62h4.61v-4.6h15.88v4.6h4.59V115h4.58Z"/><rect x="210.01" y="65.03" width="11.68" height="11.75"/><polygon points="69.24 67.51 73.84 67.51 73.84 58.21 78.47 58.21 78.47 48.93 83.07 48.93 83.07 39.63 87.67 39.63 87.67 30.36 92.27 30.36 92.27 21.05 96.91 21.05 96.91 11.75 101.51 11.75 101.51 0 92.13 0 92.13 9.27 87.5 9.27 87.5 18.58 82.9 18.58 82.9 27.88 78.3 27.88 78.3 37.15 73.67 37.15 73.67 46.46 69.06 46.46 69.06 55.73 64.47 55.73 64.47 65.03 59.87 65.03 59.87 76.78 69.24 76.78 69.24 67.51"/><rect x="210.01" y="27.88" width="11.68" height="11.75"/><path d="M48.54,18.58h-4.6V13.94h-4.6V9.27H0V76.78H39.34V72.15h4.6V67.51h4.6V62.87h4.63V23.21H48.54ZM41.46,55.73h-4.6V60.4h-4.6V65H11.68v-44H32.26v4.64h4.6v4.67h4.6Z"/><polygon points="180.22 48.93 184.82 48.93 184.82 39.63 189.42 39.63 189.42 30.36 194.02 30.36 194.02 21.05 198.65 21.05 198.65 11.75 203.25 11.75 203.25 0 193.87 0 193.87 9.27 189.24 9.27 189.24 18.58 184.64 18.58 184.64 27.88 180.04 27.88 180.04 37.15 175.41 37.15 175.41 46.46 170.81 46.46 170.81 55.73 166.21 55.73 166.21 65.03 161.61 65.03 161.61 76.78 170.99 76.78 170.99 67.51 175.59 67.51 175.59 58.21 180.22 58.21 180.22 48.93"/><polygon points="153.44 65.03 121.18 65.03 121.18 9.27 109.5 9.27 109.5 76.78 153.44 76.78 153.44 65.03"/><path class="cls-2" d="M236.55,7.43h50.77V76.78H236.55Z"/></g></g></svg>